<svg width="100" height="100" viewBox="0 0 100 100" fill="none" xmlns="http://www.w3.org/2000/svg" xmlns:xlink="http://www.w3.org/1999/xlink">
<path id="RaidPlan_01_1" d="M81.8198 13.1802C88.1132 19.4736 92.399 27.4918 94.1353 36.221C95.8717 44.9501 94.9805 53.9981 91.5746 62.2208C88.1686 70.4435 82.4008 77.4715 75.0006 82.4162C67.6004 87.3608 58.9001 90 49.9999 90C41.0997 90 32.3995 87.3608 24.9992 82.4161C17.599 77.4714 11.8313 70.4433 8.42537 62.2206C5.01945 53.9979 4.12833 44.9499 5.86469 36.2208C7.60106 27.4916 11.8869 19.4734 18.1803 13.1801L22.0547 17.0544C16.5275 22.5815 12.7635 29.6234 11.2386 37.2897C9.71361 44.956 10.4962 52.9024 13.4875 60.1239C16.4787 67.3454 21.5441 73.5177 28.0433 77.8603C34.5425 82.203 42.1834 84.5208 49.9999 84.5208C57.8164 84.5209 65.4574 82.203 71.9566 77.8604C78.4557 73.5178 83.5212 67.3455 86.5125 60.124C89.5037 52.9025 90.2864 44.9562 88.7615 37.2899C87.2365 29.6236 83.4725 22.5816 77.9455 17.0545L81.8198 13.1802Z" fill="#D9CBAD"/>
<path id="RaidPlan_02_1" d="M50 97L44.8038 89.5H55.1962L50 97Z" fill="#D9CBAD"/>
</svg>